<svg width="176" height="45" viewBox="0 0 176 45" fill="none" xmlns="http://www.w3.org/2000/svg">
<g clip-path="url(#clip0)">
<path d="M45 22.4995C45 28.5674 42.5974 34.0742 38.692 38.1211C38.0382 38.7983 37.3424 39.4356 36.6086 40.0269C35.4415 40.9676 34.1777 41.7952 32.8358 42.4909L32.833 42.4928C32.1147 42.8636 31.3741 43.1975 30.6138 43.4921C28.0971 44.4662 25.3608 45 22.5005 45C19.1036 45 15.8832 44.2476 12.9956 42.899C10.9502 41.9446 9.07356 40.6916 7.4185 39.1975L7.41753 39.1966C7.036 38.8511 6.66712 38.494 6.30993 38.1241L6.30896 38.1232C2.40258 34.0762 0 28.5684 0 22.4995C0 21.9286 0.0214453 21.3626 0.063457 20.8025C0.930937 9.16822 10.6447 0 22.5005 0C34.3641 0 44.0837 9.18193 44.9386 20.8279C44.9795 21.3802 45 21.9374 45 22.4995Z" fill="#101010"/>
<path d="M36.166 14.5673L40.4023 14.099L36.166 13.6307L35.6976 9.39435L35.2293 13.6307L30.993 14.099L35.2293 14.5673L35.6976 18.8036L36.166 14.5673Z" fill="white"/>
<path d="M41.3347 28.4952C41.3347 29.4057 41.2703 30.3015 41.1444 31.1779C40.7872 33.6849 39.9363 36.0338 38.6921 38.1212C34.6012 42.3622 28.8583 45 22.5006 45C16.1428 45 10.4008 42.3632 6.309 38.1231C6.29432 38.0987 6.27973 38.0743 6.26602 38.0499C4.72705 35.4414 3.79999 32.4299 3.67905 29.2125C3.67026 28.9744 3.66542 28.7353 3.66542 28.4952C3.66542 27.6599 3.72009 26.8372 3.82547 26.0312C3.97577 24.8797 4.22951 23.7613 4.5779 22.6859C7.02733 15.1269 14.1257 9.66104 22.5006 9.66104C23.5331 9.66104 24.5451 9.74401 25.5316 9.90406C27.7322 10.2603 29.804 10.996 31.6786 12.0451C31.7469 12.0831 31.8152 12.1222 31.8836 12.1612C32.8331 12.7077 33.7299 13.3351 34.5663 14.0329C38.1896 17.0591 40.6586 21.4221 41.2148 26.3649C41.2946 27.0637 41.3347 27.775 41.3347 28.4952Z" fill="white"/>
<path d="M36.6086 40.027C32.75 43.138 27.8424 45 22.5006 45C16.1438 45 10.4018 42.3632 6.30996 38.124L6.309 38.1231C4.97693 35.8874 4.09477 33.3531 3.78838 30.644C3.73372 30.1717 3.69759 29.6945 3.67905 29.2125C3.67026 28.9744 3.66542 28.7353 3.66542 28.4952C3.66542 27.6599 3.72009 26.8372 3.82547 26.0312C3.97577 24.8796 4.22951 23.7613 4.5779 22.6859C5.87288 18.6907 8.46575 15.28 11.8608 12.9516C10.8498 14.4243 10.0437 16.048 9.48167 17.7822C9.13327 18.8576 8.87953 19.976 8.72924 21.1275C8.62386 21.9335 8.56919 22.7562 8.56919 23.5915C8.56919 23.8315 8.57411 24.0707 8.58282 24.3088C8.73504 28.3723 10.1744 32.1078 12.5058 35.1164C14.0116 37.0593 15.8882 38.6998 18.0302 39.9313C20.7909 41.5181 23.9917 42.4257 27.4043 42.4257C30.7465 42.4257 33.8869 41.5542 36.6086 40.027Z" fill="#C7C7C7"/>
<path d="M12.8327 7.2251L17.0691 6.75673L12.8327 6.28845L12.3644 2.05212L11.8961 6.28845L7.65967 6.75673L11.8961 7.2251L12.3644 11.4615L12.8327 7.2251Z" fill="white"/>
<path d="M28.8358 7.3361L29.4798 7.98007L30.1238 7.3361L29.4798 6.69213L28.8358 7.3361Z" fill="white"/>
<path d="M4.4493 14.3035L5.09327 14.9474L5.73725 14.3035L5.09327 13.6595L4.4493 14.3035Z" fill="white"/>
<path d="M23.4779 3.5101L24.1219 4.15407L24.7658 3.5101L24.1219 2.86612L23.4779 3.5101Z" fill="white"/>
<path d="M33.895 16.7407C32.4946 15.3402 30.6874 14.8769 29.8586 15.7057C29.0298 16.5345 29.4931 18.3417 30.8935 19.7421C32.294 21.1425 34.1011 21.6059 34.93 20.7771C35.7588 19.9482 35.2954 18.1411 33.895 16.7407Z" fill="#A0A0A0"/>
<path d="M41.1444 31.1779C40.7872 33.6848 39.9362 36.0337 38.692 38.1211C38.0382 38.7984 37.3424 39.4356 36.6086 40.0269C36.6067 40.0279 36.6057 40.0298 36.6037 40.0308C32.7461 43.139 27.8404 45 22.5006 45C16.1428 45 10.4008 42.3632 6.309 38.1231C6.29432 38.0986 6.27973 38.0743 6.26602 38.0498C6.67981 37.0545 7.09457 36.024 7.43514 35.1164C8.34956 32.6777 10.0153 34.1943 11.6108 33.8566C11.9826 33.7776 12.3505 33.599 12.7048 33.2447C14.5765 31.373 17.5354 31.6345 21.4875 32.5128C25.4398 33.3911 29.6838 31.6345 32.9042 30.1707C36.1245 28.7069 36.3344 30.6801 38.7594 31.4881C39.6738 31.7927 40.4496 31.6219 41.1444 31.1779Z" fill="#ACACAC"/>
<path d="M15.7345 20.5741C17.7178 21.3179 19.1826 21.4199 19.1826 22.0054C19.1826 22.591 17.4911 22.9813 16.6453 23.8271C15.7996 24.6728 14.4333 25.1932 14.4333 24.1524C14.4333 23.1115 12.9695 22.7211 12.9695 21.6476C12.9695 20.5741 14.6936 20.1838 15.7345 20.5741Z" fill="#ACACAC"/>
<path d="M34.5661 14.0329C32.6252 13.4793 29.4384 14.1821 27.8901 14.592C27.1098 14.7987 26.5316 13.8532 27.0848 13.2652C27.4485 12.8786 28.052 12.5314 28.8759 12.3114C30.0938 11.9865 30.9633 12.0089 31.6786 12.0451C31.7469 12.0831 31.8152 12.1221 31.8835 12.1612C32.833 12.7077 33.7299 13.3352 34.5661 14.0329Z" fill="#ACACAC"/>
<path d="M36.6086 40.027C36.6067 40.0279 36.6057 40.0299 36.6037 40.0308C34.7427 41.5297 32.6368 42.7398 30.3572 43.5898C27.9107 44.5013 25.2642 45 22.5006 45C20.6396 45 18.8313 44.7736 17.1021 44.3471C12.9224 43.3195 9.20341 41.1219 6.309 38.1231C6.29432 38.0986 6.27973 38.0743 6.26602 38.0499C6.67981 37.0545 7.09457 36.024 7.43514 35.1164C8.34956 32.6777 10.0153 34.1943 11.6108 33.8566C11.8919 34.2889 12.1905 34.7095 12.5057 35.1164C14.0115 37.0593 15.8881 38.6998 18.0301 39.9313C20.7908 41.5181 23.9916 42.4257 27.4042 42.4257C30.7466 42.4257 33.8869 41.5542 36.6086 40.027Z" fill="#B0B0B0"/>
<path d="M30.3571 43.5899C27.9106 44.5013 25.2642 45 22.5005 45C20.6395 45 18.8313 44.7736 17.102 44.3471C18.5062 43.5206 21.387 42.9536 24.7128 42.9536C26.8772 42.9536 28.8543 43.1937 30.3571 43.5899Z" fill="#ACACAC"/>
<path d="M6.56174 26.4293C6.56174 27.6004 7.17944 27.4052 7.17944 28.2181C7.17944 29.032 4.93498 28.5762 4.54457 29.4867C4.39331 29.8399 4.09571 30.2606 3.78827 30.644C3.7336 30.1717 3.69748 29.6946 3.67893 29.2125C3.67014 28.9744 3.66531 28.7353 3.66531 28.4952C3.66531 27.6599 3.71998 26.8372 3.82536 26.0312C4.53868 25.3179 6.23084 24.1263 7.40681 24.217C8.5827 24.3088 6.56174 25.2583 6.56174 26.4293Z" fill="#A0A0A0"/>
</g>
<path d="M90.709 18.3916H92.9678C94.2861 18.3916 95.1123 19.1826 95.1123 20.4131C95.1123 21.6699 94.3301 22.4346 92.9941 22.4346H90.709V18.3916ZM90.709 24.3594H92.8359L95.2002 29H98.2061L95.5342 23.9639C96.9932 23.3926 97.8369 21.9863 97.8369 20.3604C97.8369 17.8555 96.167 16.3174 93.249 16.3174H88.0547V29H90.709V24.3594ZM118.788 26.8027H113.04V23.6035H118.463V21.5645H113.04V18.5059H118.788V16.3174H110.386V29H118.788V26.8027ZM131.504 16.3174V29H136.347C140.153 29 142.394 26.6357 142.394 22.6104C142.394 18.585 140.153 16.3174 136.347 16.3174H131.504ZM134.159 18.5059H136.031C138.369 18.5059 139.687 19.9648 139.687 22.6191C139.687 25.3613 138.404 26.8027 136.031 26.8027H134.159V18.5059ZM160.41 29V24.2627L164.831 16.3174H161.983L159.135 21.7314H159.074L156.235 16.3174H153.343L157.755 24.2627V29H160.41Z" fill="black"/>
<defs>
<clipPath id="clip0">
<rect width="45" height="45" fill="white"/>
</clipPath>
</defs>
</svg>
