<svg width="176" height="45" viewBox="0 0 176 45" fill="none" xmlns="http://www.w3.org/2000/svg">
<g clip-path="url(#clip0)">
<path d="M45 22.4995C45 28.5674 42.5974 34.0742 38.692 38.1211C38.0382 38.7984 37.3424 39.4356 36.6086 40.0269C35.4415 40.9676 34.1777 41.7952 32.8358 42.4909C32.8349 42.4919 32.8339 42.4919 32.833 42.4928C32.1147 42.8636 31.3741 43.1975 30.6138 43.4921H30.6128C28.0961 44.4662 25.3608 45 22.5005 45C19.1036 45 15.8832 44.2476 12.9956 42.899C10.9502 41.9446 9.07356 40.6916 7.4185 39.1975L7.41753 39.1966C7.036 38.8511 6.66712 38.494 6.30993 38.1241L6.30896 38.1232C2.40258 34.0762 0 28.5684 0 22.4995C0 21.9286 0.0214453 21.3626 0.063457 20.8025C0.930937 9.16822 10.6447 0 22.5005 0C34.3641 0 44.0837 9.18193 44.9386 20.8279C44.9795 21.3802 45 21.9374 45 22.4995Z" fill="#27536B"/>
<path d="M36.1661 14.5674L40.4025 14.099L36.1661 13.6307L35.6978 9.39441L35.2295 13.6307L30.9932 14.099L35.2295 14.5674L35.6978 18.8036L36.1661 14.5674Z" fill="white"/>
<path d="M41.3348 28.4952C41.3348 29.4056 41.2704 30.3015 41.1445 31.1779C40.7873 33.6849 39.9364 36.0337 38.6922 38.1211C34.6013 42.3622 28.8584 45 22.5007 45C16.1429 45 10.4009 42.3632 6.3091 38.1231C6.29442 38.0986 6.27983 38.0743 6.26612 38.0499C4.72716 35.4414 3.80009 32.4299 3.67915 29.2125C3.67036 28.9744 3.66553 28.7353 3.66553 28.4952C3.66553 27.6599 3.7202 26.8372 3.82558 26.0312C3.97587 24.8796 4.22961 23.7613 4.57801 22.6859C7.02743 15.1268 14.1258 9.66101 22.5007 9.66101C23.5332 9.66101 24.5452 9.74398 25.5317 9.90403C27.7323 10.2602 29.8041 10.996 31.6787 12.045C31.747 12.0831 31.8153 12.1221 31.8837 12.1611C32.8332 12.7077 33.73 13.3351 34.5664 14.0329C38.1897 17.059 40.6587 21.4221 41.2149 26.3649C41.2947 27.0636 41.3348 27.775 41.3348 28.4952Z" fill="#F77759"/>
<path d="M36.6087 40.027C32.7501 43.138 27.8425 45 22.5007 45C16.1439 45 10.4019 42.3632 6.31007 38.1241L6.3091 38.1231C4.97703 35.8874 4.09487 33.3531 3.78849 30.644C3.73382 30.1717 3.6977 29.6946 3.67915 29.2125C3.67036 28.9744 3.66553 28.7353 3.66553 28.4952C3.66553 27.6599 3.7202 26.8372 3.82558 26.0312C3.97587 24.8796 4.22961 23.7613 4.57801 22.6859C5.87299 18.6907 8.46585 15.2801 11.8609 12.9517C10.8499 14.4243 10.0438 16.048 9.48177 17.7822C9.13338 18.8576 8.87964 19.976 8.72934 21.1275C8.62396 21.9336 8.5693 22.7562 8.5693 23.5915C8.5693 23.8316 8.57422 24.0707 8.58292 24.3088C8.73515 28.3723 10.1745 32.1079 12.5059 35.1164C14.0117 37.0594 15.8883 38.6998 18.0303 39.9314C20.791 41.5181 23.9918 42.4257 27.4044 42.4257C30.7466 42.4257 33.887 41.5543 36.6087 40.027Z" fill="#E0634B"/>
<path d="M12.8327 7.2251L17.0691 6.75673L12.8327 6.28845L12.3644 2.05212L11.8961 6.28845L7.65967 6.75673L11.8961 7.2251L12.3644 11.4615L12.8327 7.2251Z" fill="white"/>
<path d="M28.8355 7.33613L29.4795 7.9801L30.1235 7.33613L29.4795 6.69216L28.8355 7.33613Z" fill="white"/>
<path d="M4.44929 14.3035L5.09326 14.9475L5.73723 14.3035L5.09326 13.6596L4.44929 14.3035Z" fill="white"/>
<path d="M23.4776 3.51008L24.1216 4.15405L24.7656 3.51008L24.1216 2.86611L23.4776 3.51008Z" fill="white"/>
<path d="M33.895 16.7407C32.4946 15.3403 30.6874 14.8769 29.8586 15.7057C29.0297 16.5346 29.4931 18.3417 30.8935 19.7422C32.2939 21.1426 34.1011 21.6059 34.9299 20.7771C35.7588 19.9483 35.2954 18.1411 33.895 16.7407Z" fill="#FF9580"/>
<path d="M41.1445 31.1778C40.7873 33.6848 39.9363 36.0337 38.6921 38.1211C38.0383 38.7984 37.3425 39.4356 36.6087 40.0269C36.6067 40.0279 36.6058 40.0298 36.6038 40.0308C32.7462 43.1389 27.8405 44.9999 22.5007 44.9999C16.1429 44.9999 10.4009 42.3631 6.30909 38.123C6.29441 38.0986 6.27982 38.0743 6.26611 38.0498C6.6799 37.0545 7.09466 36.0239 7.43523 35.1164C8.34965 32.6777 10.0154 34.1942 11.6109 33.8566C11.9827 33.7776 12.3506 33.599 12.7049 33.2447C14.5766 31.373 17.5354 31.6345 21.4876 32.5128C25.4399 33.3911 29.6839 31.6345 32.9043 30.1707C36.1246 28.7069 36.3345 30.6801 38.7594 31.4881C39.6739 31.7926 40.4497 31.6219 41.1445 31.1778Z" fill="#C66C60"/>
<path d="M15.7348 20.5742C17.718 21.3179 19.1828 21.42 19.1828 22.0055C19.1828 22.591 17.4913 22.9814 16.6456 23.8271C15.7998 24.6729 14.4335 25.1933 14.4335 24.1524C14.4335 23.1115 12.9697 22.7211 12.9697 21.6476C12.9697 20.5741 14.6938 20.1839 15.7348 20.5742Z" fill="#C66C60"/>
<path d="M34.5661 14.0329C32.6252 13.4793 29.4384 14.1822 27.8901 14.5921C27.1098 14.7987 26.5316 13.8533 27.0847 13.2653C27.4484 12.8787 28.052 12.5314 28.8759 12.3115C30.0938 11.9866 30.9633 12.009 31.6785 12.0451C31.7468 12.0832 31.8151 12.1222 31.8835 12.1612C32.833 12.7077 33.7298 13.3352 34.5661 14.0329Z" fill="#C66C60"/>
<path d="M36.6087 40.0269C36.6067 40.0279 36.6058 40.0298 36.6038 40.0308C34.7428 41.5297 32.6369 42.7398 30.3573 43.5898C27.9108 44.5013 25.2643 45 22.5007 45C20.6397 45 18.8314 44.7736 17.1021 44.3471C12.9225 43.3195 9.20351 41.1219 6.30909 38.123C6.29441 38.0986 6.27982 38.0743 6.26611 38.0498C6.6799 37.0545 7.09466 36.024 7.43523 35.1164C8.34965 32.6777 10.0154 34.1942 11.6109 33.8566C11.892 34.2889 12.1906 34.7095 12.5058 35.1164C14.0116 37.0593 15.8882 38.6998 18.0302 39.9313C20.7909 41.5181 23.9917 42.4256 27.4043 42.4256C30.7466 42.4256 33.887 41.5542 36.6087 40.0269Z" fill="#B75C53"/>
<path d="M30.3572 43.5899C27.9107 44.5013 25.2642 45 22.5006 45C20.6396 45 18.8313 44.7736 17.1021 44.3471C18.5063 43.5206 21.3871 42.9536 24.7129 42.9536C26.8772 42.9536 28.8543 43.1936 30.3572 43.5899Z" fill="#FF9580"/>
<path d="M6.56196 26.4293C6.56196 27.6004 7.17966 27.4052 7.17966 28.2181C7.17966 29.032 4.93519 28.5763 4.54478 29.4867C4.39352 29.8399 4.09593 30.2606 3.78849 30.6441C3.73382 30.1717 3.6977 29.6946 3.67915 29.2125C3.67036 28.9744 3.66553 28.7353 3.66553 28.4952C3.66553 27.6599 3.7202 26.8372 3.82558 26.0312C4.5389 25.3179 6.23105 24.1263 7.40703 24.2171C8.58292 24.3088 6.56196 25.2583 6.56196 26.4293Z" fill="#B75C53"/>
</g>
<path d="M90.1377 17.9697H92.8447C94.3652 17.9697 95.2881 18.8311 95.2881 20.2461C95.2881 21.6963 94.418 22.5312 92.8975 22.5312H90.1377V17.9697ZM90.1377 24.1221H92.8447L95.4287 29H97.6963L94.8574 23.8145C96.4043 23.2959 97.3184 21.9072 97.3184 20.1934C97.3184 17.8291 95.6924 16.3174 93.082 16.3174H88.1689V29H90.1377V24.1221ZM118.076 27.2949H111.994V23.3574H117.751V21.7227H111.994V18.0137H118.076V16.3174H110.026V29H118.076V27.2949ZM130.898 16.3174V29H135.371C139.151 29 141.374 26.6445 141.374 22.6367C141.374 18.6377 139.142 16.3174 135.371 16.3174H130.898ZM132.867 18.0137H135.187C137.868 18.0137 139.362 19.666 139.362 22.6543C139.362 25.6514 137.876 27.2949 135.187 27.2949H132.867V18.0137ZM158.88 29V23.8057L163.354 16.3174H161.174L157.94 21.916H157.879L154.644 16.3174H152.447L156.912 23.8057V29H158.88Z" fill="white"/>
<defs>
<clipPath id="clip0">
<rect width="45" height="45" fill="white"/>
</clipPath>
</defs>
</svg>
