<svg width="115" height="41" viewBox="0 0 115 41" fill="none" xmlns="http://www.w3.org/2000/svg">
<g clip-path="url(#clip0)">
<path d="M115 19.9998C115 22.6966 113.932 25.1441 112.196 26.9427C111.906 27.2437 111.597 27.5269 111.27 27.7897C110.752 28.2078 110.19 28.5756 109.594 28.8848C109.593 28.8853 109.593 28.8853 109.592 28.8857C109.273 29.0505 108.944 29.1989 108.606 29.3298H108.606C107.487 29.7628 106.271 30 105 30C103.49 30 102.059 29.6656 100.776 29.0662C99.8668 28.642 99.0327 28.0852 98.2971 27.4211L98.2967 27.4207C98.1271 27.2671 97.9632 27.1084 97.8044 26.9441L97.804 26.9436C96.0678 25.145 95 22.6971 95 19.9998C95 19.7461 95.0095 19.4945 95.0282 19.2455C95.4137 14.0748 99.731 10 105 10C110.273 10 114.593 14.0809 114.973 19.2568C114.991 19.5023 115 19.75 115 19.9998Z" fill="#27536B"/>
<path d="M111.074 16.4744L112.957 16.2662L111.074 16.0581L110.866 14.1753L110.658 16.0581L108.775 16.2662L110.658 16.4744L110.866 18.3571L111.074 16.4744Z" fill="white"/>
<path d="M113.371 22.6645C113.371 23.0692 113.342 23.4673 113.286 23.8568C113.128 24.9711 112.749 26.015 112.196 26.9427C110.378 28.8277 107.826 30 105 30C102.175 30 99.6226 28.8281 97.804 26.9436C97.7975 26.9327 97.791 26.9219 97.7849 26.9111C97.1009 25.7517 96.6889 24.4133 96.6351 22.9833C96.6312 22.8775 96.6291 22.7713 96.6291 22.6645C96.6291 22.2933 96.6534 21.9277 96.7002 21.5694C96.767 21.0576 96.8798 20.5606 97.0346 20.0826C98.1232 16.7231 101.278 14.2938 105 14.2938C105.459 14.2938 105.909 14.3307 106.347 14.4018C107.325 14.5601 108.246 14.8871 109.079 15.3534C109.11 15.3703 109.14 15.3876 109.17 15.405C109.592 15.6479 109.991 15.9267 110.363 16.2368C111.973 17.5818 113.07 19.5209 113.318 21.7177C113.353 22.0283 113.371 22.3445 113.371 22.6645Z" fill="#F77759"/>
<path d="M111.27 27.7898C109.556 29.1725 107.374 30 105 30C102.175 30 99.623 28.8281 97.8044 26.944L97.804 26.9436C97.212 25.95 96.8199 24.8236 96.6837 23.6196C96.6594 23.4097 96.6434 23.1976 96.6351 22.9833C96.6312 22.8775 96.6291 22.7713 96.6291 22.6645C96.6291 22.2933 96.6534 21.9277 96.7002 21.5694C96.767 21.0576 96.8798 20.5606 97.0346 20.0826C97.6102 18.307 98.7625 16.7911 100.271 15.7563C99.8221 16.4108 99.4639 17.1325 99.2141 17.9032C99.0592 18.3812 98.9464 18.8782 98.8796 19.39C98.8328 19.7482 98.8085 20.1139 98.8085 20.4851C98.8085 20.5918 98.8107 20.6981 98.8146 20.8039C98.8822 22.6099 99.522 24.2702 100.558 25.6073C101.227 26.4708 102.061 27.1999 103.013 27.7473C104.24 28.4525 105.663 28.8559 107.18 28.8559C108.665 28.8559 110.061 28.4686 111.27 27.7898Z" fill="#E0634B"/>
<path d="M100.703 13.2112L102.586 13.003L100.703 12.7949L100.495 10.9121L100.287 12.7949L98.4043 13.003L100.287 13.2112L100.495 15.094L100.703 13.2112Z" fill="white"/>
<path d="M107.816 13.2605L108.102 13.5467L108.388 13.2605L108.102 12.9743L107.816 13.2605Z" fill="white"/>
<path d="M96.9775 16.3571L97.2637 16.6433L97.5499 16.3571L97.2637 16.0709L96.9775 16.3571Z" fill="white"/>
<path d="M105.435 11.56L105.721 11.8463L106.007 11.56L105.721 11.2738L105.435 11.56Z" fill="white"/>
<path d="M110.064 17.4403C109.442 16.8179 108.639 16.6119 108.27 16.9803C107.902 17.3487 108.108 18.1519 108.73 18.7743C109.353 19.3967 110.156 19.6026 110.524 19.2342C110.893 18.8659 110.687 18.0627 110.064 17.4403Z" fill="#FF9580"/>
<path d="M113.286 23.8568C113.128 24.9711 112.749 26.015 112.196 26.9427C111.906 27.2437 111.597 27.5269 111.27 27.7898C111.27 27.7902 111.269 27.791 111.268 27.7915C109.554 29.1729 107.374 30 105 30C102.175 30 99.6226 28.8281 97.804 26.9436C97.7975 26.9327 97.791 26.9219 97.7849 26.911C97.9688 26.4687 98.1531 26.0107 98.3045 25.6073C98.7109 24.5234 99.4512 25.1975 100.16 25.0474C100.326 25.0123 100.489 24.9329 100.647 24.7754C101.478 23.9436 102.793 24.0598 104.55 24.4502C106.307 24.8405 108.193 24.0598 109.624 23.4092C111.055 22.7586 111.149 23.6356 112.226 23.9947C112.633 24.1301 112.978 24.0542 113.286 23.8568Z" fill="#C66C60"/>
<path d="M101.993 19.1441C102.875 19.4746 103.526 19.52 103.526 19.7802C103.526 20.0404 102.774 20.2139 102.398 20.5898C102.022 20.9657 101.415 21.197 101.415 20.7344C101.415 20.2718 100.764 20.0982 100.764 19.6211C100.764 19.144 101.53 18.9706 101.993 19.1441Z" fill="#C66C60"/>
<path d="M110.363 16.2368C109.5 15.9908 108.084 16.3032 107.396 16.4854C107.049 16.5772 106.792 16.157 107.038 15.8957C107.199 15.7238 107.468 15.5695 107.834 15.4718C108.375 15.3273 108.761 15.3373 109.079 15.3534C109.11 15.3703 109.14 15.3876 109.17 15.405C109.592 15.6479 109.991 15.9268 110.363 16.2368Z" fill="#C66C60"/>
<path d="M111.27 27.7898C111.27 27.7902 111.269 27.791 111.268 27.7915C110.441 28.4577 109.505 28.9955 108.492 29.3732C107.405 29.7784 106.229 30 105 30C104.173 30 103.369 29.8994 102.601 29.7098C100.743 29.2531 99.0904 28.2764 97.804 26.9436C97.7975 26.9327 97.791 26.9219 97.7849 26.911C97.9688 26.4687 98.1531 26.0107 98.3045 25.6073C98.7109 24.5234 99.4512 25.1975 100.16 25.0474C100.285 25.2395 100.418 25.4264 100.558 25.6073C101.227 26.4708 102.061 27.1999 103.013 27.7473C104.24 28.4525 105.663 28.8559 107.18 28.8559C108.665 28.8559 110.061 28.4686 111.27 27.7898Z" fill="#B75C53"/>
<path d="M108.492 29.3733C107.405 29.7784 106.229 30 105 30C104.173 30 103.369 29.8994 102.601 29.7098C103.225 29.3425 104.505 29.0905 105.983 29.0905C106.945 29.0905 107.824 29.1972 108.492 29.3733Z" fill="#FF9580"/>
<path d="M97.9163 21.7464C97.9163 22.2668 98.1909 22.1801 98.1909 22.5414C98.1909 22.9031 97.1933 22.7005 97.0198 23.1052C96.9526 23.2622 96.8203 23.4491 96.6837 23.6196C96.6594 23.4096 96.6433 23.1976 96.6351 22.9833C96.6312 22.8775 96.629 22.7712 96.629 22.6645C96.629 22.2933 96.6533 21.9277 96.7002 21.5694C97.0172 21.2524 97.7693 20.7228 98.2919 20.7631C98.8145 20.8039 97.9163 21.2259 97.9163 21.7464Z" fill="#B75C53"/>
</g>
<path d="M7.00586 11.9619H11.2725C13.7627 11.9619 15.3232 13.4561 15.3232 15.7803C15.3232 18.1543 13.8457 19.5986 11.3223 19.5986H7.00586V11.9619ZM7.00586 23.2344H11.0234L15.4893 32H21.167L16.1201 22.4873C18.876 21.4082 20.4697 18.752 20.4697 15.6807C20.4697 10.9492 17.3154 8.04395 11.8037 8.04395H1.99219V32H7.00586V23.2344ZM39.6445 27.8496H28.7871V21.8066H39.0303V17.9551H28.7871V12.1777H39.6445V8.04395H23.7734V32H39.6445V27.8496ZM43.2637 8.04395V32H52.4111C59.5996 32 63.833 27.5342 63.833 19.9307C63.833 12.3271 59.5996 8.04395 52.4111 8.04395H43.2637ZM48.2773 12.1777H51.8135C56.2295 12.1777 58.7197 14.9336 58.7197 19.9473C58.7197 25.127 56.2959 27.8496 51.8135 27.8496H48.2773V12.1777ZM77.4629 32V23.0518L85.8135 8.04395H80.4346L75.0557 18.2705H74.9395L69.5771 8.04395H64.1152L72.4492 23.0518V32H77.4629Z" fill="black"/>
<defs>
<clipPath id="clip0">
<rect width="20" height="20" fill="white" transform="translate(95 10)"/>
</clipPath>
</defs>
</svg>
